<svg width="482" height="204" viewBox="0 0 482 204" xmlns="http://www.w3.org/2000/svg">
    <path fill="currentColor" d="M 147.127197 69.335449 C 147.127197 82.418945 143.466431 93.839844 136.144775 103.601074 C 128.822998 113.366699 118.619385 120.78418 105.541626 125.858887 L 185.995117 202.588867 L 126.836304 202.588867 L 56.925049 134.9375 L 48.139526 134.9375 L 48.139526 202.588867 L 0.110596 202.588867 L 0.110596 7.541504 L 62.197144 7.541504 C 74.301147 7.541504 85.524536 8.813965 95.87561 11.347656 C 106.222778 13.887207 115.205444 17.695313 122.819946 22.770508 C 130.434326 27.849121 136.387695 34.242676 140.68396 41.952637 C 144.976074 49.668945 147.127197 58.792969 147.127197 69.335449 Z M 100.85498 70.213867 C 100.85498 61.428223 97.437134 54.938965 90.605469 50.738281 C 83.767822 46.541992 74.203491 44.442383 61.904541 44.442383 L 48.139526 44.442383 L 48.139526 99.20752 L 59.85498 99.20752 C 72.739502 99.20752 82.793945 96.671875 90.019897 91.593262 C 97.23999 86.518066 100.85498 79.393555 100.85498 70.213867 Z"/>
    <path fill="currentColor" d="M 179.09021 153.636719 L 179.09021 7.541504 L 227.119141 7.541504 L 227.119141 121.36084 L 288.620239 7.541504 L 342.799561 7.541504 L 276.904785 124.291016 L 347.484131 202.588867 L 289.79126 202.588867 L 227.119141 127.51123 L 227.119141 202.588867 L 179.09021 153.636719 Z"/>
    <path fill="currentColor" d="M 453 7.541504 L 453 45.61377 L 418.961792 45.61377 L 376.413696 45.61377 L 333.587158 45.61377 L 354 8 L 391.909729 7.541504 Z"/>
    <path fill="currentColor" d="M 440.959473 54 L 440.959473 129.181274 L 440.959473 204 L 392.93042 204 L 392.93042 129.181274 L 392.93042 54 Z"/>
    <path fill="currentColor" d="M 482 0 L 482 26.564041 L 482 53 L 460 53 L 460 26.564041 L 460 0 Z"/>
    </svg>
