<svg width="180" height="80" viewBox="0 0 180 80" xmlns="http://www.w3.org/2000/svg">
    <path id="Path" fill="currentColor" stroke="none" d="M 5.3394 77.753304 C 4.585863 77.193855 4.060146 76.63694 4.059088 76.079025 C 4.01816 54.452469 4.025149 32.825813 4.025859 10.115204 C 15.171825 10.712219 26.132341 10.65712 36.901936 12.063805 C 46.892799 13.368752 52.980186 20.008335 54.346233 28.662872 C 55.770107 37.683769 52.003464 44.888897 43.157066 50.069412 C 42.447891 50.484711 41.743252 50.907738 40.658443 51.551537 C 47.773266 60.085785 54.753773 68.458916 62.470905 77.715637 C 55.354618 77.715416 49.144699 77.857826 42.953117 77.584747 C 41.826756 77.535072 40.618469 75.914658 39.715633 74.802155 C 35.116367 69.134819 30.527161 63.455181 26.117956 57.640682 C 25.021635 56.194931 24.606871 54.232346 23.878828 52.507317 C 22.927042 53.142647 21.975246 53.777981 21.02346 54.413319 C 21.023222 62.044773 21.022984 69.676224 21.02273 77.755852 C 15.376258 77.755669 10.594081 77.755524 5.3394 77.753304 M 20.665051 28.635345 C 20.664913 33.03965 20.664776 37.443954 20.664597 43.177544 C 26.022566 41.761116 30.773138 41.302578 34.599308 39.178703 C 36.713249 38.005272 38.496445 33.894501 38.195278 31.374809 C 37.898251 28.889622 35.171783 26.120235 32.788727 24.633595 C 30.736742 23.353481 27.662968 23.732677 25.04896 23.326767 C 21.585575 22.788971 20.074387 24.15472 20.665051 28.635345 Z"/>
    <path id="path1" fill="currentColor" stroke="none" d="M 68.133781 15.309479 C 68.225601 13.568611 68.316544 12.292488 68.418144 10.866837 C 73.990799 10.867004 79.261162 10.867172 84.992699 10.867348 C 84.992386 20.945042 84.992081 30.80962 84.991722 42.198803 C 91.635529 32.104504 97.533066 23.354347 103.178291 14.444344 C 104.972122 11.613091 106.912384 10.279984 110.397896 10.563316 C 114.804726 10.921532 119.262741 10.65007 124.584381 10.650238 C 116.761589 22.128475 109.484184 32.806465 102.062813 43.695721 C 109.977974 54.821609 117.846481 65.881889 126.266052 77.716774 C 119.639023 77.71656 113.890617 77.917656 108.175385 77.571312 C 106.787994 77.487244 105.144753 75.845932 104.240288 74.502495 C 97.975075 65.196655 91.874062 55.780266 85.046249 45.371754 C 85.045891 56.752312 85.045578 66.956451 85.04525 77.452637 C 79.372925 77.452454 74.125519 77.452293 68.130981 77.452103 C 68.131622 56.941921 68.132263 36.358074 68.133781 15.309479 Z"/>
    <path id="path2" fill="currentColor" stroke="none" d="M 162.088272 33.750198 C 162.087799 48.797195 162.087341 63.286701 162.086884 78.002251 C 156.509659 78.002075 151.399811 78.001915 145.734451 78.00174 C 145.735077 58.230007 145.735687 38.400639 145.736328 18.014141 C 139.468979 18.013947 133.733337 18.013767 127.715012 18.01358 C 127.715172 12.908234 127.715317 8.364807 127.715485 3.001175 C 144.19046 7.661797 160.235641 12.200806 176.280838 16.739822 C 176.193176 17.185677 176.10553 17.631523 176.017883 18.07737 C 171.559906 18.077229 167.101913 18.077091 162.08876 18.076931 C 162.088593 23.242283 162.08844 28.217495 162.088272 33.750198 Z"/>
</svg>
