<svg width="496" height="195" viewBox="0 0 496 195" xmlns="http://www.w3.org/2000/svg">
    <path fill="currentColor" stroke="none" d="M 147.127197 61.335449 C 147.127197 74.418945 143.466431 85.839844 136.144775 95.601074 C 128.822998 105.366699 118.619385 112.78418 105.541626 117.858887 L 185.995117 194.588867 L 126.836304 194.588867 L 56.925049 126.9375 L 48.139526 126.9375 L 48.139526 194.588867 L 0.110596 194.588867 L 0.110596 -0.458496 L 62.197144 -0.458496 C 74.301147 -0.458496 85.524536 0.813965 95.87561 3.347656 C 106.222778 5.887207 115.205444 9.695313 122.819946 14.770508 C 130.434326 19.849121 136.387695 26.242676 140.68396 33.952637 C 144.976074 41.668945 147.127197 50.792969 147.127197 61.335449 Z M 100.85498 62.213867 C 100.85498 53.428223 97.437134 46.938965 90.605469 42.738281 C 83.767822 38.541992 74.203491 36.442383 61.904541 36.442383 L 48.139526 36.442383 L 48.139526 91.20752 L 59.85498 91.20752 C 72.739502 91.20752 82.793945 88.671875 90.019897 83.593262 C 97.23999 78.518066 100.85498 71.393555 100.85498 62.213867 Z"/>
    <path fill="currentColor" stroke="none" d="M 179.09021 145.636719 L 179.09021 -0.458496 L 227.119141 -0.458496 L 227.119141 113.36084 L 288.620239 -0.458496 L 342.799561 -0.458496 L 276.904785 116.291016 L 347.484131 194.588867 L 289.79126 194.588867 L 227.119141 119.51123 L 227.119141 194.588867 L 179.09021 145.636719 Z"/>
    <path fill="currentColor" stroke="none" d="M 496 -0.458496 L 496 51 L 347 49.91571 L 376.580872 0 Z"/>
    <path fill="currentColor" stroke="none" d="M 451 49 L 451 122.176437 L 451 195 L 404.93042 195 L 404.93042 122.176437 L 404.93042 49 Z"/>
</svg>
