<svg xmlns="http://www.w3.org/2000/svg" version="1.1" xmlns:xlink="http://www.w3.org/1999/xlink" xmlns:svgjs="http://svgjs.com/svgjs" width="1000" height="1000"><rect width="1000" height="1000" rx="100" ry="100" fill="#e0e4f5"></rect><g transform="matrix(1.606425702811245,0,0,1.606425702811245,100.11174293430935,343.2073785696613)"><svg xmlns="http://www.w3.org/2000/svg" version="1.1" xmlns:xlink="http://www.w3.org/1999/xlink" xmlns:svgjs="http://svgjs.com/svgjs" width="498" height="195"><svg width="498" height="195" viewBox="0 0 498 195" xmlns="http://www.w3.org/2000/svg">
    <path fill="currentColor" stroke="none" d="M 147.127197 62.335449 C 147.127197 75.418945 143.466431 86.839844 136.144775 96.601074 C 128.822998 106.366699 118.619385 113.78418 105.541626 118.858887 L 185.995117 195.588867 L 126.836304 195.588867 L 56.925049 127.9375 L 48.139526 127.9375 L 48.139526 195.588867 L 0.110596 195.588867 L 0.110596 0.541504 L 62.197144 0.541504 C 74.301147 0.541504 85.524536 1.813965 95.87561 4.347656 C 106.222778 6.887207 115.205444 10.695313 122.819946 15.770508 C 130.434326 20.849121 136.387695 27.242676 140.68396 34.952637 C 144.976074 42.668945 147.127197 51.792969 147.127197 62.335449 Z M 100.85498 63.213867 C 100.85498 54.428223 97.437134 47.938965 90.605469 43.738281 C 83.767822 39.541992 74.203491 37.442383 61.904541 37.442383 L 48.139526 37.442383 L 48.139526 92.20752 L 59.85498 92.20752 C 72.739502 92.20752 82.793945 89.671875 90.019897 84.593262 C 97.23999 79.518066 100.85498 72.393555 100.85498 63.213867 Z"></path>
    <path fill="currentColor" stroke="none" d="M 179.09021 146.636719 L 179.09021 0.541504 L 227.119141 0.541504 L 227.119141 114.36084 L 288.620239 0.541504 L 342.799561 0.541504 L 276.904785 117.291016 L 347.484131 195.588867 L 289.79126 195.588867 L 227.119141 120.51123 L 227.119141 195.588867 L 179.09021 146.636719 Z"></path>
    <path fill="currentColor" stroke="none" d="M 497.520874 -0.041016 L 497.520874 38.029892 L 444.247437 38.029892 L 444.247437 195 L 395.439148 195 L 395.439148 38.029892 L 342.16571 38.029892 L 367.039001 -0.041016 L 497.520874 -0.041016 Z"></path>
</svg></svg></g></svg>